<svg id="Layer_4" data-name="Layer 4" xmlns="http://www.w3.org/2000/svg" viewBox="0 0 345.56 394.72"><defs><style>.cls-1{fill:#f5eded;}.cls-2{fill:none;}</style></defs><path class="cls-1" d="M135.53,440.09c.4-2.24,1-3.26,1.6-3.77a4.76,4.76,0,0,1,1-.47l1-.38a32,32,0,0,1,4.08-1.18h0l.88,0c3.21-.18,6.49,0,9.84-.11s6.73-.19,10.1-.17l5.07.07,2.46.05,1.17,0H184l40-.33,40-.29,20-.06c6.57,0,13-.19,19.45-.73a176.38,176.38,0,0,0,37.8-7.12A114.58,114.58,0,0,0,375.08,409a87.46,87.46,0,0,0,13.7-12.42,84.14,84.14,0,0,0,10.61-15.06A100.75,100.75,0,0,0,410.48,346l-.06.91c0-4.08-.07-8.24-.21-12.29-.07-2-.16-4-.31-5.89-.07-.89-.21-1.95-.31-2.92s-.22-2-.37-3a122,122,0,0,0-5.33-23.06,100.07,100.07,0,0,0-10-21.11,92.43,92.43,0,0,0-14.77-17.94c-11.31-10.72-25.34-18.56-40.36-23.76a157.83,157.83,0,0,0-23.2-6.07c-2-.37-4-.71-6-1.05s-4.21-.69-6.27-1.06c-4.14-.74-8.21-1.49-12.27-2.17-16.17-2.72-32.35-4.52-47.92-2.69-8.11,1-16.8,1.79-20.41,4.95-.24.22-.5.4-.74.65l-.36.37-.09.09s-.09.08,0,0a2.36,2.36,0,0,0,.25-.33,3.67,3.67,0,0,0,.64-1.71,2.65,2.65,0,0,0-.07-1.06c-.13-.35-.1-.2,0-.12a.32.32,0,0,0,.1.09l.63.34a23.78,23.78,0,0,0,4.53,1.61,42.4,42.4,0,0,0,5.34,1,69.1,69.1,0,0,0,11.38.51c1.93-.06,3.87-.2,5.81-.38s4-.43,6-.68c4-.51,8-1.14,12-1.88l6.1-1.15c2.06-.39,4.07-.77,6-1.18a53.93,53.93,0,0,0,5.46-1.42l6-1.89,3-.94c1.09-.32,1.84-.55,2.76-.87,1.78-.61,3.6-1.32,5.41-2.08a119.54,119.54,0,0,0,20.75-11.37,96.81,96.81,0,0,0,17.64-15.33,67.72,67.72,0,0,0,12.2-19.14,57.7,57.7,0,0,0,4.3-21.92,66.5,66.5,0,0,0-1-11.32,47.21,47.21,0,0,0-3.13-10.54,64.06,64.06,0,0,0-12.48-18.82,73.59,73.59,0,0,0-18.12-14,71.12,71.12,0,0,0-21.54-7.63,73.66,73.66,0,0,0-11.43-1.14L277.6,86.5q-12.48-.16-25-.17l-12.49,0-6.24,0-3.13,0c-.91,0-1.91,0-2.89.08-4,.18-8,.53-11.88,1.08-2,.26-3.92.59-5.86,1-1,.19-1.92.38-2.88.59l-2.91.69-12.17,3-3,.74-1.45.37-1.21.34-2.9,1-3,1A167.79,167.79,0,0,0,158.16,105a115.4,115.4,0,0,0-10.39,5.76c-3.4,2.12-6.7,4.37-9.85,6.77a78.54,78.54,0,0,0-16.41,16.3c-4.38,6.09-7.21,12.93-7.59,20l-3.33-5.7h0l.52.22.69.28c.48.18,1,.36,1.48.52,1,.34,2,.63,3.1.89a46.45,46.45,0,0,0,19.48.52,48.52,48.52,0,0,0,12.42-4.19A58.65,58.65,0,0,0,159.44,139c.44-.36.88-.71,1.31-1.08l1.25-1.15,1.27-1.15,1.21-1.22,1.21-1.22c.23-.22.32-.33.52-.54l.53-.61c.73-.83,1.45-1.71,2.15-2.61a70.5,70.5,0,0,0,7.3-11.44,44.73,44.73,0,0,0,4.22-12.24,25.69,25.69,0,0,0-.55-11.84,20.17,20.17,0,0,0-1-2.72c-.19-.45-.45-.91-.67-1.37s-.47-.91-.74-1.36a32.61,32.61,0,0,0-3.63-5.12,39.34,39.34,0,0,0-4.55-4.58,46.84,46.84,0,0,0-5.25-4,64.24,64.24,0,0,0-25-9.55,58.07,58.07,0,0,0-13.33-.66,42.93,42.93,0,0,0-6.46.89c-.53.1-1,.21-1.56.36l-.77.2-.39.1-.32.09c-1,.31-2.08.7-3.13,1.09a66.59,66.59,0,0,0-12.08,6,35.81,35.81,0,0,0-9.37,8.26L92,74.48l.28.43.35.52.76,1.08c.52.72,1.08,1.44,1.64,2.15q1.71,2.13,3.6,4.12A61.67,61.67,0,0,0,106.72,90a48.44,48.44,0,0,0,19.13,8.79h0a42.88,42.88,0,0,0,9.12.9,48.07,48.07,0,0,0,9.22-1l2.56,12.5a60.61,60.61,0,0,1-11.68,1.25,57.09,57.09,0,0,1-11.8-1.15h0A57.82,57.82,0,0,1,110.51,107a64.85,64.85,0,0,1-11.37-6.84,74.31,74.31,0,0,1-9.76-8.71q-2.23-2.37-4.28-4.93c-.68-.86-1.35-1.73-2-2.63l-1-1.37-.48-.72L81.13,81l-2.29-3.61,2.66-3.47A48.45,48.45,0,0,1,94.19,62.67a78.87,78.87,0,0,1,14.43-7.11c1.26-.47,2.5-.9,3.86-1.33l.57-.16.51-.14,1-.26c.68-.18,1.36-.34,2-.47a56.25,56.25,0,0,1,8.2-1.11,71.53,71.53,0,0,1,16.18.83,76.87,76.87,0,0,1,29.86,11.53,59.81,59.81,0,0,1,6.53,5,50.62,50.62,0,0,1,5.86,5.94,44.47,44.47,0,0,1,4.89,7,21.43,21.43,0,0,1,1,1.89c.32.66.66,1.27,1,2a33.36,33.36,0,0,1,1.56,4.22,37.87,37.87,0,0,1,.84,17.47,56.6,56.6,0,0,1-5.39,15.65A82.18,82.18,0,0,1,178.5,137c-.83,1-1.67,2.07-2.57,3.1l-.69.78c-.22.24-.55.59-.76.8l-1.4,1.4-1.4,1.4-1.48,1.34-1.48,1.34c-.5.44-1,.85-1.54,1.28a70.33,70.33,0,0,1-13.56,8.82,60.26,60.26,0,0,1-15.56,5.2,58.1,58.1,0,0,1-16.44.68,59.19,59.19,0,0,1-8.14-1.4c-1.34-.35-2.68-.72-4-1.17-.67-.22-1.33-.46-2-.72l-1-.41c-.38-.16-.65-.27-1.18-.53h0l-3.56-1.73.23-4a45.78,45.78,0,0,1,3-14,56.24,56.24,0,0,1,6.66-12.3,90.68,90.68,0,0,1,18.86-19c3.47-2.67,7.07-5.15,10.74-7.46a127.71,127.71,0,0,1,11.47-6.43,180.48,180.48,0,0,1,24-9.61l6-2c.73-.23,1.25-.37,1.8-.52l1.58-.41,3.08-.78,12.14-3,3.19-.77c1.08-.25,2.16-.47,3.25-.69,2.16-.41,4.33-.79,6.5-1.09,4.33-.62,8.66-1,13-1.24,1.1-.06,2.19-.1,3.36-.11l3.13,0,6.28-.06,12.56-.08q12.56,0,25.12.05,6.28,0,12.58.17A87.31,87.31,0,0,1,303.79,75a84.19,84.19,0,0,1,25.49,9,86.69,86.69,0,0,1,21.39,16.46,76.85,76.85,0,0,1,15.06,22.7,59.78,59.78,0,0,1,4,13.41,79.94,79.94,0,0,1,1.21,13.59,70.88,70.88,0,0,1-5.25,26.92A80.9,80.9,0,0,1,351.17,200a110,110,0,0,1-20,17.49,133.55,133.55,0,0,1-23.09,12.7c-2,.86-4.11,1.68-6.27,2.42-1,.36-2.29.75-3.21,1l-2.94.91-6,1.9c-2.11.68-4.53,1.3-6.66,1.75s-4.24.85-6.27,1.24l-6.21,1.18c-4.18.77-8.46,1.47-12.73,2-2.14.27-4.25.52-6.41.73s-4.44.38-6.68.45a81,81,0,0,1-13.61-.6,54.46,54.46,0,0,1-6.95-1.33,36.88,36.88,0,0,1-7.23-2.61l-1-.52-.48-.28-.65-.4a14.27,14.27,0,0,1-2.28-1.93,13.36,13.36,0,0,1-3.22-5.42,10.92,10.92,0,0,1-.4-4.16,9.9,9.9,0,0,1,1.71-4.62,10.3,10.3,0,0,1,.75-.94l.25-.28.19-.18.74-.75c.49-.5,1.07-.95,1.6-1.42a25.83,25.83,0,0,1,7.31-4.12,45.1,45.1,0,0,1,7.12-1.94c4.52-.86,8.73-1.34,12.91-1.84,1-.13,2.17-.22,3.27-.33s2.22-.24,3.32-.28c2.21-.12,4.41-.24,6.61-.24,4.39-.08,8.74.09,13.06.39,8.64.59,17.14,1.77,25.5,3.16,4.18.69,8.32,1.45,12.39,2.17,2.06.36,4,.69,6.08,1s4.21.7,6.33,1.09A172.45,172.45,0,0,1,343.27,224a139.76,139.76,0,0,1,24,10.86,116,116,0,0,1,21.36,15.82,106.36,106.36,0,0,1,17,20.59,113.83,113.83,0,0,1,11.44,24A137,137,0,0,1,423,321c.16,1.08.29,2.17.41,3.25s.25,2.12.35,3.31c.2,2.32.29,4.46.37,6.61.15,4.29.22,8.48.24,12.75v.44l-.06.47a112.9,112.9,0,0,1-12.76,40.41,98,98,0,0,1-12.44,17.55,101.68,101.68,0,0,1-15.92,14.36,127.3,127.3,0,0,1-37.89,18.31,188.86,188.86,0,0,1-40.75,7.31c-6.84.51-13.76.68-20.53.58l-20-.13-40-.1h-40l-10,.1-1.26,0H171.5l-2.54,0-4.94,0-9.9-.06c-3.32-.05-6.71.26-10.17,0l.91,0a31.74,31.74,0,0,1-4.25,0q-.54,0-1.08-.09a4.28,4.28,0,0,1-1.09-.18c-.75-.31-1.57-1.14-2.57-3.19Z" transform="translate(-78.84 -51.94)"/><path class="cls-1" d="M136.05,292.79c.14.34.22.75.37,1.11a5,5,0,0,0,.23.53l.12.36a5.76,5.76,0,0,0,.62,1.11l.52.63a.69.69,0,0,1,.13.21.79.79,0,0,0,.08.13s0,.07,0,.21a2,2,0,0,0,1.38,1.07,2,2,0,0,0,.53.07h.25l.31-.06a3,3,0,0,0,1-.42,2.09,2.09,0,0,0,.57-.58,1.31,1.31,0,0,0,.2-.46h0s0-.09,0-.12,0-.2,0-.3a5.36,5.36,0,0,0-.1-.6,3.26,3.26,0,0,0-.44-1,1,1,0,0,0-.18-.2,2.41,2.41,0,0,0-.43-.31c-.44-.29-1.11-.57-2.32-1.3a8,8,0,0,1-2.15-1.94l-.25-.36-.05-.06-.11-.17a4.41,4.41,0,0,1-.54-1.33,5.09,5.09,0,0,1-.12-.75v-.69l0-.79c0-.84.08-1.66.09-2.51.17-6.81.09-13.77,0-20.69s-.24-13.88-.47-20.8l-.14-4,4-.61a39.83,39.83,0,0,1,6.65-.61,18.32,18.32,0,0,1,3.91.41,15.45,15.45,0,0,1,4,1.54h0l3.65,2.85-1.32,1.76a4.13,4.13,0,0,0-.5,1.2,10.25,10.25,0,0,0-.28,1.36,19.82,19.82,0,0,0-.1,2.78,55.16,55.16,0,0,0,.32,5.6,65.5,65.5,0,0,0,2.14,11,63.3,63.3,0,0,0,3.83,10.39,52.54,52.54,0,0,0,5.57,9.37,36.33,36.33,0,0,0,7.19,7.38,13.21,13.21,0,0,0,1.8,1.12c.14.08.17.07.26.12l-.05,0-.06,0c.2.06-.48-.14.43.14a5.36,5.36,0,0,1,3.52,5.95,5.26,5.26,0,0,1-1,2.33,4.91,4.91,0,0,1-.81.86l-.2.18-.43.42a36.54,36.54,0,0,0-3.39,3.86,45.14,45.14,0,0,0-8.53,19.2,46.71,46.71,0,0,0-.72,5.29c-.08.89-.1,1.78-.15,2.68l-.07,2.91c0,.95,0,1.91,0,2.71,0,.4,0,.74.07,1.11l.16,1.38c.12,1,.22,2.09.31,3.11l.21,3,0,.35,0,.17v.09s0,.16,0,0c0,.43.06.72.08,1.06a17.82,17.82,0,0,1,0,2.06,12.93,12.93,0,0,1-.39,2.48,8,8,0,0,1-.63,1.67,7,7,0,0,1-1.61,2.13,6.31,6.31,0,0,1-1.47,1l-.43.2-.13.05-.22.08-.88.32c-.57.17-1.15.36-1.69.5-1.12.31-2.17.54-3.23.76-4.16.82-8.09,1.3-11.92,1.9a77.44,77.44,0,0,0-10.85,2.29,23.76,23.76,0,0,0-4.48,1.85,11.85,11.85,0,0,0-1.67,1.14c-.23.2-.43.4-.62.6l-.26.3a4.64,4.64,0,0,0-.31.4,8.2,8.2,0,0,0-.9,1.55,3.63,3.63,0,0,0-.21.73.85.85,0,0,0-.27-.39c-.15-.11-.13,0,.07,0a2.15,2.15,0,0,0,.91-.06l.29-.09.07,0,.16-.07.34-.14,1.36-.58,5.53-2.33a80.55,80.55,0,0,1,11.89-4,34.77,34.77,0,0,1,13.45-.69,41.06,41.06,0,0,1,18.18,8.5,13.37,13.37,0,0,1,1.57,1.65,7.84,7.84,0,0,1,.84,1.31,6.34,6.34,0,0,1,.66,2.1,5.84,5.84,0,0,1-.35,2.89,6.35,6.35,0,0,1-1.4,2.11,8.33,8.33,0,0,1-2.52,1.71,19.46,19.46,0,0,1-3.7,1.23c-1.12.27-2.19.47-3.24.65-2.09.35-4.11.6-6.12.83-4,.45-7.9.76-11.72,1.13a59,59,0,0,0-10.66,1.81,14.23,14.23,0,0,0-1.93.75c-.49.24-.76.52-.66.4a1.53,1.53,0,0,0,.26-.94,2.46,2.46,0,0,0,.36.74,6.42,6.42,0,0,0,5.78,3.27,20.62,20.62,0,0,0,4.76-.5c.88-.17,1.79-.38,2.78-.6s2-.46,3.3-.65a14,14,0,0,1,2.32-.14,9.72,9.72,0,0,1,1.67.21,7,7,0,0,1,2.23.94,6.46,6.46,0,0,1,2,2.12,6.84,6.84,0,0,1,.83,2.21,9.27,9.27,0,0,1,.06,2.95c0,.41-.11.74-.17,1.09l-.1.5,0,.12a5.47,5.47,0,0,1-.84,1.83,5.55,5.55,0,0,1-.74.82c-.15.13-.31.25-.44.35a7,7,0,0,1-.94.57l-.58.28-.91.37c-1.1.42-2.06.73-3,1-3.85,1.23-7.55,2.37-11.18,3.64-1.81.63-3.59,1.29-5.3,2a36.76,36.76,0,0,0-4.7,2.3,8.36,8.36,0,0,0-1.52,1.1c-.14.12-.15.2,0,0a2.22,2.22,0,0,0,.23-.61,3.16,3.16,0,0,0,0-1.11,2.36,2.36,0,0,0-.54-1.2c-.08-.08,0,0,.23.14a10.77,10.77,0,0,0,1.83.8l.58.19a.76.76,0,0,0,.31,0c.09,0,.1.07.24-.11s.49-.91.72-1.31.28-.3.35-.29l.21.1.41.18a11.45,11.45,0,0,1,3.11,2.22,12.86,12.86,0,0,1,3.18,5.68,18.58,18.58,0,0,1,.42,4.44,27.48,27.48,0,0,1-.26,3.48c-.13,1.06-.3,2-.39,2.92s-.14,1.69-.14,2.28a6.27,6.27,0,0,0,0,.66c0,.11.06.09,0-.12a2.49,2.49,0,0,0-.74-1A4.15,4.15,0,0,0,141,434h0a.61.61,0,0,0-.14,0l-1.46,12.67-.81-.11h0a10,10,0,0,1-3.81-1.84,9.56,9.56,0,0,1-2.63-3.27,12.06,12.06,0,0,1-1-2.91,19.54,19.54,0,0,1-.42-2.27c-.18-1.38-.22-2.55-.26-3.64s-.11-2.09-.18-3-.17-1.75-.26-2.44a4.52,4.52,0,0,0-.39-1.42c0-.22,0,.07.42.52a2.8,2.8,0,0,0,.71.5l.07,0h0s0,.12.18-.35l.55-1.37c.08-.21,0-.11.06-.18s.07-.11,0-.13l-.82-.29a20.21,20.21,0,0,1-3.54-1.68,11,11,0,0,1-2.11-1.66,8.26,8.26,0,0,1-1.13-1.49,6.87,6.87,0,0,1-.85-2.26,6.75,6.75,0,0,1,.05-2.58,7.19,7.19,0,0,1,.75-2,9.48,9.48,0,0,1,1.81-2.3,17.82,17.82,0,0,1,3.25-2.39,47.82,47.82,0,0,1,6-2.86c1.94-.81,3.87-1.52,5.79-2.2,3.82-1.35,7.68-2.53,11.34-3.75.9-.31,1.81-.62,2.56-.91l.46-.19.09-.05a1.76,1.76,0,0,0-.31.2,2.6,2.6,0,0,0-.29.24,4.13,4.13,0,0,0-.62.68,5.15,5.15,0,0,0-.76,1.66v-.06l.05-.23a3.19,3.19,0,0,0,0-.37c0-.2,0-.31,0,0a2.62,2.62,0,0,0,.32.82,3.26,3.26,0,0,0,1,1.06,2.75,2.75,0,0,0,.87.38l.2,0s-.31,0-.64.07c-1.39.22-3.42.8-5.5,1.24a30.21,30.21,0,0,1-7,.78,17,17,0,0,1-8-2,15.44,15.44,0,0,1-3.44-2.57,18.59,18.59,0,0,1-2.57-3.2,11.84,11.84,0,0,1-1.82-4.72,8.51,8.51,0,0,1,1.73-6.51,11.89,11.89,0,0,1,4-3.21,22,22,0,0,1,3.57-1.43,46.8,46.8,0,0,1,6.5-1.42c2.09-.32,4.14-.55,6.17-.74,4-.4,8-.58,11.9-.78,1.93-.1,3.85-.21,5.67-.39.9-.09,1.79-.2,2.6-.33a12.31,12.31,0,0,0,2-.47c.19-.06.24-.14,0,.13a2.72,2.72,0,0,0-.56.89,3,3,0,0,0-.18,1.44c.16.81.32.82.26.77a2.46,2.46,0,0,0-.46-.51,24.8,24.8,0,0,0-4.13-2.83,26.61,26.61,0,0,0-9.56-3.51c-6.51-1-13.44,1.46-20.49,4.55-1.77.76-3.55,1.58-5.34,2.4l-1.35.61-.33.16-.45.19a10.51,10.51,0,0,1-1.11.41,11.68,11.68,0,0,1-4.94.46,9.49,9.49,0,0,1-5.24-2.41,8.83,8.83,0,0,1-2.77-5.62A11.32,11.32,0,0,1,115,369a17.17,17.17,0,0,1,1.93-3.65c.19-.26.34-.51.56-.79l.69-.84a18.69,18.69,0,0,1,1.47-1.48,20.51,20.51,0,0,1,3.16-2.29,33,33,0,0,1,6.39-2.81,85,85,0,0,1,12.27-2.8c4-.68,7.89-1.22,11.46-2,.88-.19,1.75-.39,2.54-.62.41-.11.77-.24,1.14-.36l.51-.19.13,0h0l-.26.11a3.9,3.9,0,0,0-.86.58,3.08,3.08,0,0,0-.74.94,1,1,0,0,0-.12.28s0-.19,0-.44,0-.58,0-.9l-.11-1.3-.25-2.94c-.09-.94-.19-1.85-.31-2.78l-.19-1.56c-.07-.61-.11-1.26-.13-1.84,0-1.18,0-2.19,0-3.22l.05-3c0-1.08.07-2.16.17-3.24a56.35,56.35,0,0,1,.84-6.45,54.92,54.92,0,0,1,10.67-23.66,42.48,42.48,0,0,1,4.51-4.94l.66-.6.36-.3c.2-.17-.1,0-.68.73a5,5,0,0,0-.94,2.16,5,5,0,0,0,3.25,5.53c.86.25.12,0,.26.07l-.42-.13c-.25-.09-.6-.21-.74-.28a11.86,11.86,0,0,1-1.07-.53,23.13,23.13,0,0,1-3.16-2.12,44,44,0,0,1-8.91-9.88,63.63,63.63,0,0,1-6-11.25,68.73,68.73,0,0,1-3.83-12,89.23,89.23,0,0,1-1.8-12.35c-.18-2.07-.27-4.15-.31-6.23,0-1,0-2.09-.05-3.14,0-.54-.08-1.06-.14-1.61,0-.27-.08-.54-.13-.82l-.15-.93,2.33,4.61h0a5.4,5.4,0,0,0-1.46-.6,8.24,8.24,0,0,0-1.94-.25,33.43,33.43,0,0,0-5.12.41l3.9-4.65.3,20.94c.06,7,.11,13.95-.1,21.06,0,.88-.07,1.8-.11,2.7l0,.52v-.21a3.79,3.79,0,0,0-.09-.58,4.33,4.33,0,0,0-.52-1.26l-.08-.12,0,0,0,.07a.28.28,0,0,0-.06-.09c-.22-.28-.35-.33-.2-.23s1.2.61,2.24,1.24a11.49,11.49,0,0,1,1.66,1.24,10.26,10.26,0,0,1,1.55,1.74,12.61,12.61,0,0,1,1.74,3.73,14.58,14.58,0,0,1,.38,2c0,.33.07.66.07,1,0,.18,0,.31,0,.52l0,.66a10.63,10.63,0,0,1-4.49,7.61,12.41,12.41,0,0,1-3.74,1.77l-1,.24a8.85,8.85,0,0,1-1,.19,13.09,13.09,0,0,1-2.07.14,13.57,13.57,0,0,1-4.1-.66,11.21,11.21,0,0,1-3.95-2.23,9.89,9.89,0,0,1-2.78-4.13,9.5,9.5,0,0,1-.5-2.41,9.39,9.39,0,0,1,0-1.18c0-.41.06-.81.12-1.21a6.67,6.67,0,0,1,2.15-4.29,4.67,4.67,0,0,1,2.19-1,3.83,3.83,0,0,1,.59-.1,5.77,5.77,0,0,1,.71.1c.48.07.89.2,1.4.31Z" transform="translate(-78.84 -51.94)"/><path class="cls-1" d="M116.24,340.55a3.46,3.46,0,0,1-1.94-.63.52.52,0,0,1-.17-.4l-.06-.41c-.07-.56-.16-1.11-.25-1.65-.17-1.11-.38-2.2-.59-3.29q-.66-3.26-1.54-6.44a67.32,67.32,0,0,0-4.63-12.12,45.85,45.85,0,0,0-3.18-5.42c-.58-.84-1.18-1.65-1.8-2.39a17.51,17.51,0,0,0-1.8-1.88l-.16-.12-.06-.05h0l.07.05.19.1-.36-.18-1.64-.82-.89-.47-.64-.36-.15-.1-.22-.15-.15-.11s-.18-.13-.34-.27a4.32,4.32,0,0,1-.76-.82c.41-1.2-4.28-1.46,2.11-8.34l.94-.33.06,0c.35-.09.73-.24,1.12-.38a19.51,19.51,0,0,0,4.71-2.75,35,35,0,0,0,7.93-9c.53-.89,1.15-1.84,1.55-2.62a27.7,27.7,0,0,0,1.2-2.68,52.7,52.7,0,0,0,1.92-6,108,108,0,0,0,2.45-13.13c.31-2.24.55-4.5.76-6.76s.4-4.57.51-6.73h0v-2.5l2.07-1.42.3-.21.17-.1.26-.15.4-.22.68-.29a8.71,8.71,0,0,1,1.16-.34,10,10,0,0,1,2-.21,12.38,12.38,0,0,1,1.86.16c.3,0,.59.12.88.18s.58.22.86,1.21v6c-.21,1-.41,1.19-.62,1.22l-.6.25-1.09.44-.86.34a1.34,1.34,0,0,1-.26.09s0,0,0,0,0,0,.06-.06l.41-.28,2.07-3.92h0c0,5-.25,9.68-.73,14.53A110.82,110.82,0,0,1,127.16,273a60.62,60.62,0,0,1-2.23,7.37,40.15,40.15,0,0,1-1.64,3.74c-.66,1.31-1.31,2.33-2,3.46a44.62,44.62,0,0,1-10.53,11.93,29.87,29.87,0,0,1-7.41,4.26,22,22,0,0,1-2.21.73l-.14,0-.08,0h0c.37-.13-.9.31.83-.3,6.37-6.87,1.69-7.11,2.12-8.3a4.27,4.27,0,0,0-.72-.77l-.3-.24-.11-.08-.18-.13.12.07.66.35,1.5.77.42.21c.25.12.38.21.57.32l.26.17.18.12.36.26.28.22.52.44a26.92,26.92,0,0,1,3,3.21c.86,1.06,1.65,2.14,2.38,3.24a56,56,0,0,1,3.83,6.75,73.76,73.76,0,0,1,5,14.2c.6,2.41,1.1,4.83,1.52,7.26.19,1.22.39,2.43.54,3.65.09.61.17,1.22.23,1.83l0,.45a.66.66,0,0,1-.06.47c-.17.33-.65.7-1.72,1.12Z" transform="translate(-78.84 -51.94)"/><path class="cls-2" d="M151.15,347.89" transform="translate(-78.84 -51.94)"/></svg>